<?xml version="1.0" encoding="UTF-8" standalone="no"?>
<!DOCTYPE svg PUBLIC "-//W3C//DTD SVG 1.1//EN"
 "http://www.w3.org/Graphics/SVG/1.1/DTD/svg11.dtd">
<!-- Generated by graphviz version 2.47.3 (20210619.1520)
 -->
<!-- Title: dependencies Pages: 1 -->
<svg width="298pt" height="247pt"
 viewBox="0.00 0.00 298.00 246.80" xmlns="http://www.w3.org/2000/svg" xmlns:xlink="http://www.w3.org/1999/xlink">
<g id="graph0" class="graph" transform="scale(1 1) rotate(0) translate(4 242.8)">
<title>dependencies</title>
<polygon fill="white" stroke="transparent" points="-4,4 -4,-242.8 294,-242.8 294,4 -4,4"/>
<text text-anchor="middle" x="145" y="-8.2" font-family="sans-serif" font-size="14.00">dependencies</text>
<g id="clust1" class="cluster">
<title>cluster_MockPostsModule</title>
<polygon fill="none" stroke="black" stroke-dasharray="1,5" points="8,-32.8 8,-230.8 282,-230.8 282,-32.8 8,-32.8"/>
</g>
<g id="clust6" class="cluster">
<title>cluster_MockPostsModule_providers</title>
<polygon fill="none" stroke="black" points="82,-40.8 82,-92.8 216,-92.8 216,-40.8 82,-40.8"/>
</g>
<g id="clust4" class="cluster">
<title>cluster_MockPostsModule_exports</title>
<polygon fill="none" stroke="black" points="16,-170.8 16,-222.8 274,-222.8 274,-170.8 16,-170.8"/>
</g>
<!-- AuthService  -->
<g id="node1" class="node">
<title>AuthService </title>
<polygon fill="#fb8072" stroke="black" points="265.98,-214.8 176.02,-214.8 176.02,-178.8 265.98,-178.8 265.98,-214.8"/>
<text text-anchor="middle" x="221" y="-192.6" font-family="Times,serif" font-size="14.00">AuthService </text>
</g>
<!-- RequiredAuthGuard  -->
<g id="node2" class="node">
<title>RequiredAuthGuard </title>
<polygon fill="#fb8072" stroke="black" points="157.8,-214.8 24.2,-214.8 24.2,-178.8 157.8,-178.8 157.8,-214.8"/>
<text text-anchor="middle" x="91" y="-192.6" font-family="Times,serif" font-size="14.00">RequiredAuthGuard </text>
</g>
<!-- MockPostsModule -->
<g id="node3" class="node">
<title>MockPostsModule</title>
<polygon fill="#8dd3c7" stroke="black" points="209.77,-149.8 206.77,-153.8 185.77,-153.8 182.77,-149.8 88.23,-149.8 88.23,-113.8 209.77,-113.8 209.77,-149.8"/>
<text text-anchor="middle" x="149" y="-127.6" font-family="Times,serif" font-size="14.00">MockPostsModule</text>
</g>
<!-- MockPostsModule&#45;&gt;AuthService  -->
<g id="edge1" class="edge">
<title>MockPostsModule&#45;&gt;AuthService </title>
<path fill="none" stroke="black" stroke-dasharray="5,2" d="M193.07,-149.91C193.07,-149.91 193.07,-168.79 193.07,-168.79"/>
<polygon fill="black" stroke="black" points="189.57,-168.79 193.07,-178.79 196.57,-168.79 189.57,-168.79"/>
</g>
<!-- MockPostsModule&#45;&gt;RequiredAuthGuard  -->
<g id="edge2" class="edge">
<title>MockPostsModule&#45;&gt;RequiredAuthGuard </title>
<path fill="none" stroke="black" stroke-dasharray="5,2" d="M123.01,-149.91C123.01,-149.91 123.01,-168.79 123.01,-168.79"/>
<polygon fill="black" stroke="black" points="119.51,-168.79 123.01,-178.79 126.51,-168.79 119.51,-168.79"/>
</g>
<!-- AuthService -->
<g id="node4" class="node">
<title>AuthService</title>
<ellipse fill="#fdb462" stroke="black" cx="149" cy="-66.8" rx="59.11" ry="18"/>
<text text-anchor="middle" x="149" y="-62.6" font-family="Times,serif" font-size="14.00">AuthService</text>
</g>
<!-- AuthService&#45;&gt;MockPostsModule -->
<g id="edge3" class="edge">
<title>AuthService&#45;&gt;MockPostsModule</title>
<path fill="none" stroke="black" d="M149,-84.91C149,-84.91 149,-103.79 149,-103.79"/>
<polygon fill="black" stroke="black" points="145.5,-103.79 149,-113.79 152.5,-103.79 145.5,-103.79"/>
</g>
</g>
</svg>
