<?xml version="1.0" encoding="UTF-8" standalone="no"?>
<!DOCTYPE svg PUBLIC "-//W3C//DTD SVG 1.1//EN"
 "http://www.w3.org/Graphics/SVG/1.1/DTD/svg11.dtd">
<!-- Generated by graphviz version 2.47.3 (20210619.1520)
 -->
<!-- Title: dependencies Pages: 1 -->
<svg width="489pt" height="174pt"
 viewBox="0.00 0.00 489.00 173.80" xmlns="http://www.w3.org/2000/svg" xmlns:xlink="http://www.w3.org/1999/xlink">
<g id="graph0" class="graph" transform="scale(1 1) rotate(0) translate(4 169.8)">
<title>dependencies</title>
<polygon fill="white" stroke="transparent" points="-4,4 -4,-169.8 485,-169.8 485,4 -4,4"/>
<text text-anchor="middle" x="240.5" y="-8.2" font-family="sans-serif" font-size="14.00">dependencies</text>
<g id="clust1" class="cluster">
<title>cluster_ApiModule</title>
<polygon fill="none" stroke="black" stroke-dasharray="1,5" points="8,-32.8 8,-157.8 473,-157.8 473,-32.8 8,-32.8"/>
</g>
<g id="clust3" class="cluster">
<title>cluster_ApiModule_imports</title>
<polygon fill="none" stroke="black" points="16,-40.8 16,-92.8 465,-92.8 465,-40.8 16,-40.8"/>
</g>
<!-- AuthModule -->
<g id="node1" class="node">
<title>AuthModule</title>
<polygon fill="#8dd3c7" stroke="black" points="456.55,-84.8 453.55,-88.8 432.55,-88.8 429.55,-84.8 369.45,-84.8 369.45,-48.8 456.55,-48.8 456.55,-84.8"/>
<text text-anchor="middle" x="413" y="-62.6" font-family="Times,serif" font-size="14.00">AuthModule</text>
</g>
<!-- ApiModule -->
<g id="node5" class="node">
<title>ApiModule</title>
<polygon fill="#8dd3c7" stroke="black" points="277.05,-149.8 274.05,-153.8 253.05,-153.8 250.05,-149.8 196.95,-149.8 196.95,-113.8 277.05,-113.8 277.05,-149.8"/>
<text text-anchor="middle" x="237" y="-127.6" font-family="Times,serif" font-size="14.00">ApiModule</text>
</g>
<!-- AuthModule&#45;&gt;ApiModule -->
<g id="edge1" class="edge">
<title>AuthModule&#45;&gt;ApiModule</title>
<path fill="none" stroke="black" d="M413,-84.91C413,-104.14 413,-131.8 413,-131.8 413,-131.8 287.38,-131.8 287.38,-131.8"/>
<polygon fill="black" stroke="black" points="287.38,-128.3 277.38,-131.8 287.38,-135.3 287.38,-128.3"/>
</g>
<!-- HashtagsModule -->
<g id="node2" class="node">
<title>HashtagsModule</title>
<polygon fill="#8dd3c7" stroke="black" points="351.37,-84.8 348.37,-88.8 327.37,-88.8 324.37,-84.8 240.63,-84.8 240.63,-48.8 351.37,-48.8 351.37,-84.8"/>
<text text-anchor="middle" x="296" y="-62.6" font-family="Times,serif" font-size="14.00">HashtagsModule</text>
</g>
<!-- HashtagsModule&#45;&gt;ApiModule -->
<g id="edge2" class="edge">
<title>HashtagsModule&#45;&gt;ApiModule</title>
<path fill="none" stroke="black" d="M258.92,-84.91C258.92,-84.91 258.92,-103.79 258.92,-103.79"/>
<polygon fill="black" stroke="black" points="255.42,-103.79 258.92,-113.79 262.42,-103.79 255.42,-103.79"/>
</g>
<!-- PostsModule -->
<g id="node3" class="node">
<title>PostsModule</title>
<polygon fill="#8dd3c7" stroke="black" points="222.61,-84.8 219.61,-88.8 198.61,-88.8 195.61,-84.8 133.39,-84.8 133.39,-48.8 222.61,-48.8 222.61,-84.8"/>
<text text-anchor="middle" x="178" y="-62.6" font-family="Times,serif" font-size="14.00">PostsModule</text>
</g>
<!-- PostsModule&#45;&gt;ApiModule -->
<g id="edge3" class="edge">
<title>PostsModule&#45;&gt;ApiModule</title>
<path fill="none" stroke="black" d="M209.64,-84.91C209.64,-84.91 209.64,-103.79 209.64,-103.79"/>
<polygon fill="black" stroke="black" points="206.14,-103.79 209.64,-113.79 213.14,-103.79 206.14,-103.79"/>
</g>
<!-- UsersModule -->
<g id="node4" class="node">
<title>UsersModule</title>
<polygon fill="#8dd3c7" stroke="black" points="115.92,-84.8 112.92,-88.8 91.92,-88.8 88.92,-84.8 24.08,-84.8 24.08,-48.8 115.92,-48.8 115.92,-84.8"/>
<text text-anchor="middle" x="70" y="-62.6" font-family="Times,serif" font-size="14.00">UsersModule</text>
</g>
<!-- UsersModule&#45;&gt;ApiModule -->
<g id="edge4" class="edge">
<title>UsersModule&#45;&gt;ApiModule</title>
<path fill="none" stroke="black" d="M70,-84.91C70,-104.14 70,-131.8 70,-131.8 70,-131.8 186.57,-131.8 186.57,-131.8"/>
<polygon fill="black" stroke="black" points="186.57,-135.3 196.57,-131.8 186.57,-128.3 186.57,-135.3"/>
</g>
</g>
</svg>
