<?xml version="1.0" encoding="UTF-8" standalone="no"?>
<!DOCTYPE svg PUBLIC "-//W3C//DTD SVG 1.1//EN"
 "http://www.w3.org/Graphics/SVG/1.1/DTD/svg11.dtd">
<!-- Generated by graphviz version 2.47.3 (20210619.1520)
 -->
<!-- Title: dependencies Pages: 1 -->
<svg width="1043pt" height="394pt"
 viewBox="0.00 0.00 1043.00 393.80" xmlns="http://www.w3.org/2000/svg" xmlns:xlink="http://www.w3.org/1999/xlink">
<g id="graph0" class="graph" transform="scale(1 1) rotate(0) translate(4 389.8)">
<title>dependencies</title>
<polygon fill="white" stroke="transparent" points="-4,4 -4,-389.8 1039,-389.8 1039,4 -4,4"/>
<text text-anchor="middle" x="517.5" y="-8.2" font-family="sans-serif" font-size="14.00">dependencies</text>
<g id="clust1" class="cluster">
<title>cluster_ApiModule</title>
<polygon fill="none" stroke="black" stroke-dasharray="1,5" points="290,-108.8 290,-236.8 755,-236.8 755,-108.8 290,-108.8"/>
</g>
<g id="clust3" class="cluster">
<title>cluster_ApiModule_imports</title>
<polygon fill="none" stroke="black" points="298,-116.8 298,-168.8 747,-168.8 747,-116.8 298,-116.8"/>
</g>
<g id="clust7" class="cluster">
<title>cluster_AppModule</title>
<polygon fill="none" stroke="black" stroke-dasharray="1,5" points="8,-176.8 8,-304.8 282,-304.8 282,-176.8 8,-176.8"/>
</g>
<g id="clust9" class="cluster">
<title>cluster_AppModule_imports</title>
<polygon fill="none" stroke="black" points="154,-184.8 154,-236.8 274,-236.8 274,-184.8 154,-184.8"/>
</g>
<g id="clust12" class="cluster">
<title>cluster_AppModule_providers</title>
<polygon fill="none" stroke="black" points="16,-184.8 16,-236.8 146,-236.8 146,-184.8 16,-184.8"/>
</g>
<g id="clust13" class="cluster">
<title>cluster_AuthModule</title>
<polygon fill="none" stroke="black" stroke-dasharray="1,5" points="763,-176.8 763,-244.8 1027,-244.8 1027,-176.8 763,-176.8"/>
</g>
<g id="clust16" class="cluster">
<title>cluster_AuthModule_exports</title>
<polygon fill="none" stroke="black" points="913,-184.8 913,-236.8 1019,-236.8 1019,-184.8 913,-184.8"/>
</g>
<g id="clust18" class="cluster">
<title>cluster_AuthModule_providers</title>
<polygon fill="none" stroke="black" points="771,-184.8 771,-236.8 905,-236.8 905,-184.8 771,-184.8"/>
</g>
<g id="clust25" class="cluster">
<title>cluster_MockPostsModule</title>
<polygon fill="none" stroke="black" stroke-dasharray="1,5" points="808,-252.8 808,-377.8 974,-377.8 974,-252.8 808,-252.8"/>
</g>
<g id="clust28" class="cluster">
<title>cluster_MockPostsModule_exports</title>
<polygon fill="none" stroke="black" points="816,-317.8 816,-369.8 966,-369.8 966,-317.8 816,-317.8"/>
</g>
<g id="clust31" class="cluster">
<title>cluster_PostsModule</title>
<polygon fill="none" stroke="black" stroke-dasharray="1,5" points="248,-32.8 248,-100.8 400,-100.8 400,-32.8 248,-32.8"/>
</g>
<g id="clust36" class="cluster">
<title>cluster_PostsModule_providers</title>
<polygon fill="none" stroke="black" points="256,-40.8 256,-92.8 392,-92.8 392,-40.8 256,-40.8"/>
</g>
<g id="clust49" class="cluster">
<title>cluster_UsersModule</title>
<polygon fill="none" stroke="black" stroke-dasharray="1,5" points="408,-32.8 408,-100.8 564,-100.8 564,-32.8 408,-32.8"/>
</g>
<g id="clust54" class="cluster">
<title>cluster_UsersModule_providers</title>
<polygon fill="none" stroke="black" points="416,-40.8 416,-92.8 556,-92.8 556,-40.8 416,-40.8"/>
</g>
<!-- AuthModule -->
<g id="node1" class="node">
<title>AuthModule</title>
<polygon fill="#8dd3c7" stroke="black" points="738.55,-160.8 735.55,-164.8 714.55,-164.8 711.55,-160.8 651.45,-160.8 651.45,-124.8 738.55,-124.8 738.55,-160.8"/>
<text text-anchor="middle" x="695" y="-138.6" font-family="Times,serif" font-size="14.00">AuthModule</text>
</g>
<!-- ApiModule -->
<g id="node5" class="node">
<title>ApiModule</title>
<polygon fill="#8dd3c7" stroke="black" points="499.05,-228.8 496.05,-232.8 475.05,-232.8 472.05,-228.8 418.95,-228.8 418.95,-192.8 499.05,-192.8 499.05,-228.8"/>
<text text-anchor="middle" x="459" y="-206.6" font-family="Times,serif" font-size="14.00">ApiModule</text>
</g>
<!-- AuthModule&#45;&gt;ApiModule -->
<g id="edge1" class="edge">
<title>AuthModule&#45;&gt;ApiModule</title>
<path fill="none" stroke="black" d="M680.41,-161.05C680.41,-183.82 680.41,-219.8 680.41,-219.8 680.41,-219.8 509.1,-219.8 509.1,-219.8"/>
<polygon fill="black" stroke="black" points="509.1,-216.3 499.1,-219.8 509.1,-223.3 509.1,-216.3"/>
</g>
<!-- AuthService  -->
<g id="node9" class="node">
<title>AuthService </title>
<polygon fill="#fb8072" stroke="black" points="1010.98,-228.8 921.02,-228.8 921.02,-192.8 1010.98,-192.8 1010.98,-228.8"/>
<text text-anchor="middle" x="966" y="-206.6" font-family="Times,serif" font-size="14.00">AuthService </text>
</g>
<!-- AuthModule&#45;&gt;AuthService  -->
<g id="edge8" class="edge">
<title>AuthModule&#45;&gt;AuthService </title>
<path fill="none" stroke="black" stroke-dasharray="5,2" d="M738.84,-142.8C815.54,-142.8 966,-142.8 966,-142.8 966,-142.8 966,-182.58 966,-182.58"/>
<polygon fill="black" stroke="black" points="962.5,-182.58 966,-192.58 969.5,-182.58 962.5,-182.58"/>
</g>
<!-- HashtagsModule -->
<g id="node2" class="node">
<title>HashtagsModule</title>
<polygon fill="#8dd3c7" stroke="black" points="633.37,-160.8 630.37,-164.8 609.37,-164.8 606.37,-160.8 522.63,-160.8 522.63,-124.8 633.37,-124.8 633.37,-160.8"/>
<text text-anchor="middle" x="578" y="-138.6" font-family="Times,serif" font-size="14.00">HashtagsModule</text>
</g>
<!-- HashtagsModule&#45;&gt;ApiModule -->
<g id="edge2" class="edge">
<title>HashtagsModule&#45;&gt;ApiModule</title>
<path fill="none" stroke="black" d="M578,-161.02C578,-181.17 578,-210.8 578,-210.8 578,-210.8 509.29,-210.8 509.29,-210.8"/>
<polygon fill="black" stroke="black" points="509.29,-207.3 499.29,-210.8 509.29,-214.3 509.29,-207.3"/>
</g>
<!-- PostsModule -->
<g id="node3" class="node">
<title>PostsModule</title>
<polygon fill="#8dd3c7" stroke="black" points="395.61,-160.8 392.61,-164.8 371.61,-164.8 368.61,-160.8 306.39,-160.8 306.39,-124.8 395.61,-124.8 395.61,-160.8"/>
<text text-anchor="middle" x="351" y="-138.6" font-family="Times,serif" font-size="14.00">PostsModule</text>
</g>
<!-- PostsModule&#45;&gt;ApiModule -->
<g id="edge3" class="edge">
<title>PostsModule&#45;&gt;ApiModule</title>
<path fill="none" stroke="black" d="M351,-161.02C351,-181.17 351,-210.8 351,-210.8 351,-210.8 408.78,-210.8 408.78,-210.8"/>
<polygon fill="black" stroke="black" points="408.78,-214.3 418.78,-210.8 408.78,-207.3 408.78,-214.3"/>
</g>
<!-- UsersModule -->
<g id="node4" class="node">
<title>UsersModule</title>
<polygon fill="#8dd3c7" stroke="black" points="504.92,-160.8 501.92,-164.8 480.92,-164.8 477.92,-160.8 413.08,-160.8 413.08,-124.8 504.92,-124.8 504.92,-160.8"/>
<text text-anchor="middle" x="459" y="-138.6" font-family="Times,serif" font-size="14.00">UsersModule</text>
</g>
<!-- UsersModule&#45;&gt;ApiModule -->
<g id="edge4" class="edge">
<title>UsersModule&#45;&gt;ApiModule</title>
<path fill="none" stroke="black" d="M459,-161.02C459,-161.02 459,-182.53 459,-182.53"/>
<polygon fill="black" stroke="black" points="455.5,-182.53 459,-192.53 462.5,-182.53 455.5,-182.53"/>
</g>
<!-- AppModule -->
<g id="node7" class="node">
<title>AppModule</title>
<polygon fill="#8dd3c7" stroke="black" points="255.66,-296.8 252.66,-300.8 231.66,-300.8 228.66,-296.8 172.34,-296.8 172.34,-260.8 255.66,-260.8 255.66,-296.8"/>
<text text-anchor="middle" x="214" y="-274.6" font-family="Times,serif" font-size="14.00">AppModule</text>
</g>
<!-- ApiModule&#45;&gt;AppModule -->
<g id="edge5" class="edge">
<title>ApiModule&#45;&gt;AppModule</title>
<path fill="none" stroke="black" d="M459,-229.02C459,-249.17 459,-278.8 459,-278.8 459,-278.8 265.84,-278.8 265.84,-278.8"/>
<polygon fill="black" stroke="black" points="265.84,-275.3 255.84,-278.8 265.84,-282.3 265.84,-275.3"/>
</g>
<!-- ProdDbModule -->
<g id="node6" class="node">
<title>ProdDbModule</title>
<polygon fill="#8dd3c7" stroke="black" points="265.6,-228.8 262.6,-232.8 241.6,-232.8 238.6,-228.8 162.4,-228.8 162.4,-192.8 265.6,-192.8 265.6,-228.8"/>
<text text-anchor="middle" x="214" y="-206.6" font-family="Times,serif" font-size="14.00">ProdDbModule</text>
</g>
<!-- ProdDbModule&#45;&gt;AppModule -->
<g id="edge6" class="edge">
<title>ProdDbModule&#45;&gt;AppModule</title>
<path fill="none" stroke="black" d="M214,-229.02C214,-229.02 214,-250.53 214,-250.53"/>
<polygon fill="black" stroke="black" points="210.5,-250.53 214,-260.53 217.5,-250.53 210.5,-250.53"/>
</g>
<!-- AppService -->
<g id="node8" class="node">
<title>AppService</title>
<ellipse fill="#fdb462" stroke="black" cx="81" cy="-210.8" rx="56.74" ry="18"/>
<text text-anchor="middle" x="81" y="-206.6" font-family="Times,serif" font-size="14.00">AppService</text>
</g>
<!-- AppService&#45;&gt;AppModule -->
<g id="edge7" class="edge">
<title>AppService&#45;&gt;AppModule</title>
<path fill="none" stroke="black" d="M81,-229.02C81,-249.17 81,-278.8 81,-278.8 81,-278.8 162.28,-278.8 162.28,-278.8"/>
<polygon fill="black" stroke="black" points="162.28,-282.3 172.28,-278.8 162.28,-275.3 162.28,-282.3"/>
</g>
<!-- AuthService -->
<g id="node10" class="node">
<title>AuthService</title>
<ellipse fill="#fdb462" stroke="black" cx="838" cy="-210.8" rx="59.11" ry="18"/>
<text text-anchor="middle" x="838" y="-206.6" font-family="Times,serif" font-size="14.00">AuthService</text>
</g>
<!-- AuthService&#45;&gt;AuthModule -->
<g id="edge9" class="edge">
<title>AuthService&#45;&gt;AuthModule</title>
<path fill="none" stroke="black" d="M786.51,-201.8C750.79,-201.8 709.59,-201.8 709.59,-201.8 709.59,-201.8 709.59,-170.82 709.59,-170.82"/>
<polygon fill="black" stroke="black" points="713.09,-170.82 709.59,-160.82 706.09,-170.82 713.09,-170.82"/>
</g>
<!-- MockPostsModule -->
<g id="node12" class="node">
<title>MockPostsModule</title>
<polygon fill="#8dd3c7" stroke="black" points="951.77,-296.8 948.77,-300.8 927.77,-300.8 924.77,-296.8 830.23,-296.8 830.23,-260.8 951.77,-260.8 951.77,-296.8"/>
<text text-anchor="middle" x="891" y="-274.6" font-family="Times,serif" font-size="14.00">MockPostsModule</text>
</g>
<!-- AuthService&#45;&gt;MockPostsModule -->
<g id="edge12" class="edge">
<title>AuthService&#45;&gt;MockPostsModule</title>
<path fill="none" stroke="black" d="M863.71,-227.26C863.71,-227.26 863.71,-250.58 863.71,-250.58"/>
<polygon fill="black" stroke="black" points="860.21,-250.58 863.71,-260.58 867.21,-250.58 860.21,-250.58"/>
</g>
<!-- RequiredAuthGuard  -->
<g id="node11" class="node">
<title>RequiredAuthGuard </title>
<polygon fill="#fb8072" stroke="black" points="957.8,-361.8 824.2,-361.8 824.2,-325.8 957.8,-325.8 957.8,-361.8"/>
<text text-anchor="middle" x="891" y="-339.6" font-family="Times,serif" font-size="14.00">RequiredAuthGuard </text>
</g>
<!-- MockPostsModule&#45;&gt;AuthService  -->
<g id="edge10" class="edge">
<title>MockPostsModule&#45;&gt;AuthService </title>
<path fill="none" stroke="black" stroke-dasharray="5,2" d="M936.57,-260.58C936.57,-260.58 936.57,-239.07 936.57,-239.07"/>
<polygon fill="black" stroke="black" points="940.07,-239.07 936.57,-229.07 933.07,-239.07 940.07,-239.07"/>
</g>
<!-- MockPostsModule&#45;&gt;RequiredAuthGuard  -->
<g id="edge11" class="edge">
<title>MockPostsModule&#45;&gt;RequiredAuthGuard </title>
<path fill="none" stroke="black" stroke-dasharray="5,2" d="M891,-296.91C891,-296.91 891,-315.79 891,-315.79"/>
<polygon fill="black" stroke="black" points="887.5,-315.79 891,-325.79 894.5,-315.79 887.5,-315.79"/>
</g>
<!-- PostsService -->
<g id="node13" class="node">
<title>PostsService</title>
<ellipse fill="#fdb462" stroke="black" cx="324" cy="-66.8" rx="60.27" ry="18"/>
<text text-anchor="middle" x="324" y="-62.6" font-family="Times,serif" font-size="14.00">PostsService</text>
</g>
<!-- PostsService&#45;&gt;PostsModule -->
<g id="edge13" class="edge">
<title>PostsService&#45;&gt;PostsModule</title>
<path fill="none" stroke="black" d="M345.41,-83.67C345.41,-83.67 345.41,-114.65 345.41,-114.65"/>
<polygon fill="black" stroke="black" points="341.91,-114.65 345.41,-124.65 348.91,-114.65 341.91,-114.65"/>
</g>
<!-- UsersService -->
<g id="node14" class="node">
<title>UsersService</title>
<ellipse fill="#fdb462" stroke="black" cx="486" cy="-66.8" rx="61.95" ry="18"/>
<text text-anchor="middle" x="486" y="-62.6" font-family="Times,serif" font-size="14.00">UsersService</text>
</g>
<!-- UsersService&#45;&gt;UsersModule -->
<g id="edge14" class="edge">
<title>UsersService&#45;&gt;UsersModule</title>
<path fill="none" stroke="black" d="M464.37,-84.05C464.37,-84.05 464.37,-114.56 464.37,-114.56"/>
<polygon fill="black" stroke="black" points="460.87,-114.56 464.37,-124.56 467.87,-114.56 460.87,-114.56"/>
</g>
</g>
</svg>
